<?xml version="1.0" encoding="utf-8"?>
<!-- Generator: Adobe Illustrator 23.0.3, SVG Export Plug-In . SVG Version: 6.00 Build 0)  -->
<svg version="1.1" id="Layer_2" xmlns="http://www.w3.org/2000/svg" xmlns:xlink="http://www.w3.org/1999/xlink" x="0px" y="0px"
	 viewBox="0 0 500 500" style="enable-background:new 0 0 500 500;" xml:space="preserve">
<style type="text/css">
	.st0{fill:#FFFFFF;}
</style>
<path class="st0" d="M136.26,164.18h17.4v65h0.6c3.6-5.2,7.2-10,10.6-14.4l41.2-50.6h21.6l-48.8,57.2l52.6,77.6h-20.6l-44.4-66.2
	l-12.8,14.8v51.4h-17.4V164.18z"/>
<path class="st0" d="M213.65,228.37c0-10-0.2-18.2-0.8-26.2h15.4l0.8,15.6h0.6c5.4-9.2,14.4-17.8,30.4-17.8c13.2,0,23.2,8,27.4,19.4
	h0.4c3-5.4,6.8-9.6,10.8-12.6c5.8-4.4,12.2-6.8,21.4-6.8c12.8,0,31.8,8.4,31.8,42l0.2,117.46l-17-22l-0.4-44.21v-49.05
	c0-18.6-6.8-29.8-21-29.8c-10,0-17.8,7.4-20.8,16c-0.8,2.4-1.4,5.6-1.4,8.8v59.8h-17.2v-58c0-15.4-6.8-26.6-20.2-26.6
	c-11,0-19,8.8-21.8,17.6c-1,2.6-1.4,5.6-1.4,8.6v58.4h-17.2V228.37z"/>
<path class="st0" d="M407.77,331.27c-3.45,1.8-11.1,4.2-20.85,4.2c-21.9,0-36.15-14.85-36.15-37.05c0-22.35,15.3-38.55,39-38.55
	c7.8,0,14.7,1.95,18.3,3.75l-3,10.2c-3.15-1.8-8.1-3.45-15.3-3.45c-16.65,0-25.65,12.3-25.65,27.45c0,16.8,10.8,27.15,25.2,27.15
	c7.5,0,12.45-1.95,16.2-3.6L407.77,331.27z"/>
<path class="st0" d="M408.06,98.92c-3.16-0.04-11.79-8.19-14.47-9.83c-12.92-7.88-26.78-14.46-41.16-19.69
	c-45.24-16.47-95.07-18.18-141.32-4.07C144.11,85.76,93.24,131.8,74.3,195.53c-30.17,101.54,32.9,209.35,141.08,239.61
	c63.12,17.66,144.09,11.41,192.67-34.2l-30.2-1.51c-55.92,35-144.1,30-202.17-1c-56.4-30.11-87.79-97.59-85.4-156.23
	c2.2-53.98,32.19-110.69,82.07-139.92c45.61-26.73,103.62-34.2,155.65-21.5c15.62,3.81,30.88,9.49,44.48,17.65
	C372.48,98.43,408.02,98.92,408.06,98.92z"/>
</svg>
